<?xml version="1.0" encoding="UTF-8"?>
<svg xmlns="http://www.w3.org/2000/svg" xmlns:xlink="http://www.w3.org/1999/xlink" width="1920" height="1080" viewBox="0 0 1920 1080">
<defs>
<g>
<g id="glyph-0-0">
<path d="M 3.0625 0.140625 C 2.53125 0.140625 2.101562 0.0703125 1.78125 -0.0625 C 1.46875 -0.195312 1.238281 -0.375 1.09375 -0.59375 C 0.945312 -0.820312 0.875 -1.0625 0.875 -1.3125 C 0.875 -1.5 0.929688 -1.679688 1.046875 -1.859375 C 1.171875 -2.035156 1.351562 -2.144531 1.59375 -2.1875 C 1.738281 -1.75 1.921875 -1.390625 2.140625 -1.109375 C 2.367188 -0.835938 2.707031 -0.703125 3.15625 -0.703125 C 3.75 -0.703125 4.191406 -1.003906 4.484375 -1.609375 C 4.773438 -2.222656 4.945312 -3.179688 5 -4.484375 C 4.800781 -4.253906 4.550781 -4.0625 4.25 -3.90625 C 3.957031 -3.75 3.582031 -3.671875 3.125 -3.671875 C 2.363281 -3.671875 1.734375 -3.90625 1.234375 -4.375 C 0.742188 -4.84375 0.5 -5.523438 0.5 -6.421875 C 0.5 -7.066406 0.617188 -7.628906 0.859375 -8.109375 C 1.109375 -8.597656 1.460938 -8.976562 1.921875 -9.25 C 2.378906 -9.519531 2.925781 -9.65625 3.5625 -9.65625 C 4.207031 -9.65625 4.78125 -9.5 5.28125 -9.1875 C 5.78125 -8.875 6.175781 -8.382812 6.46875 -7.71875 C 6.757812 -7.050781 6.90625 -6.1875 6.90625 -5.125 C 6.90625 -4.382812 6.832031 -3.695312 6.6875 -3.0625 C 6.539062 -2.425781 6.316406 -1.867188 6.015625 -1.390625 C 5.710938 -0.910156 5.316406 -0.535156 4.828125 -0.265625 C 4.335938 0.00390625 3.75 0.140625 3.0625 0.140625 Z M 3.6875 -4.625 C 3.988281 -4.625 4.242188 -4.695312 4.453125 -4.84375 C 4.671875 -4.988281 4.851562 -5.195312 5 -5.46875 C 4.976562 -6.65625 4.851562 -7.5 4.625 -8 C 4.394531 -8.5 4.066406 -8.75 3.640625 -8.75 C 3.242188 -8.75 2.9375 -8.566406 2.71875 -8.203125 C 2.507812 -7.835938 2.40625 -7.269531 2.40625 -6.5 C 2.40625 -5.25 2.832031 -4.625 3.6875 -4.625 Z "/>
</g>
<g id="glyph-0-1">
<path d="M 3.765625 0.140625 C 2.953125 0.140625 2.304688 -0.0625 1.828125 -0.46875 C 1.359375 -0.882812 1.019531 -1.460938 0.8125 -2.203125 C 0.601562 -2.941406 0.5 -3.800781 0.5 -4.78125 C 0.5 -5.769531 0.601562 -6.628906 0.8125 -7.359375 C 1.019531 -8.085938 1.363281 -8.648438 1.84375 -9.046875 C 2.320312 -9.453125 2.96875 -9.65625 3.78125 -9.65625 C 4.550781 -9.65625 5.175781 -9.453125 5.65625 -9.046875 C 6.132812 -8.648438 6.484375 -8.082031 6.703125 -7.34375 C 6.921875 -6.613281 7.03125 -5.753906 7.03125 -4.765625 C 7.03125 -3.785156 6.921875 -2.925781 6.703125 -2.1875 C 6.484375 -1.457031 6.132812 -0.882812 5.65625 -0.46875 C 5.175781 -0.0625 4.546875 0.140625 3.765625 0.140625 Z M 3.765625 -0.734375 C 4.253906 -0.734375 4.570312 -1.085938 4.71875 -1.796875 C 4.875 -2.503906 4.953125 -3.492188 4.953125 -4.765625 C 4.953125 -6.035156 4.875 -7.019531 4.71875 -7.71875 C 4.570312 -8.425781 4.257812 -8.78125 3.78125 -8.78125 C 3.28125 -8.78125 2.953125 -8.425781 2.796875 -7.71875 C 2.640625 -7.019531 2.5625 -6.035156 2.5625 -4.765625 C 2.5625 -3.492188 2.640625 -2.503906 2.796875 -1.796875 C 2.953125 -1.085938 3.273438 -0.734375 3.765625 -0.734375 Z "/>
</g>
<g id="glyph-0-2">
<path d="M 2.859375 -3.734375 C 2.015625 -3.734375 1.398438 -4.003906 1.015625 -4.546875 C 0.640625 -5.097656 0.453125 -5.816406 0.453125 -6.703125 C 0.453125 -7.597656 0.640625 -8.3125 1.015625 -8.84375 C 1.398438 -9.382812 2.015625 -9.65625 2.859375 -9.65625 C 3.660156 -9.65625 4.257812 -9.382812 4.65625 -8.84375 C 5.050781 -8.3125 5.25 -7.597656 5.25 -6.703125 C 5.25 -5.816406 5.050781 -5.097656 4.65625 -4.546875 C 4.257812 -4.003906 3.660156 -3.734375 2.859375 -3.734375 Z M 3.203125 0 L 7.796875 -9.515625 L 8.828125 -9.515625 L 4.234375 0 Z M 2.859375 -4.390625 C 3.191406 -4.390625 3.421875 -4.59375 3.546875 -5 C 3.671875 -5.40625 3.734375 -5.972656 3.734375 -6.703125 C 3.734375 -7.410156 3.671875 -7.960938 3.546875 -8.359375 C 3.421875 -8.765625 3.191406 -8.96875 2.859375 -8.96875 C 2.535156 -8.96875 2.300781 -8.765625 2.15625 -8.359375 C 2.019531 -7.960938 1.953125 -7.410156 1.953125 -6.703125 C 1.953125 -5.972656 2.019531 -5.40625 2.15625 -5 C 2.300781 -4.59375 2.535156 -4.390625 2.859375 -4.390625 Z M 9.21875 0.140625 C 8.375 0.140625 7.765625 -0.128906 7.390625 -0.671875 C 7.015625 -1.222656 6.828125 -1.945312 6.828125 -2.84375 C 6.828125 -3.738281 7.015625 -4.453125 7.390625 -4.984375 C 7.765625 -5.515625 8.378906 -5.78125 9.234375 -5.78125 C 10.035156 -5.78125 10.632812 -5.515625 11.03125 -4.984375 C 11.425781 -4.453125 11.625 -3.738281 11.625 -2.84375 C 11.625 -1.945312 11.425781 -1.222656 11.03125 -0.671875 C 10.632812 -0.128906 10.03125 0.140625 9.21875 0.140625 Z M 9.21875 -0.53125 C 9.5625 -0.53125 9.796875 -0.734375 9.921875 -1.140625 C 10.046875 -1.546875 10.109375 -2.113281 10.109375 -2.84375 C 10.109375 -3.550781 10.046875 -4.101562 9.921875 -4.5 C 9.796875 -4.90625 9.566406 -5.109375 9.234375 -5.109375 C 8.910156 -5.109375 8.675781 -4.90625 8.53125 -4.5 C 8.394531 -4.101562 8.328125 -3.550781 8.328125 -2.84375 C 8.328125 -2.113281 8.394531 -1.546875 8.53125 -1.140625 C 8.675781 -0.734375 8.90625 -0.53125 9.21875 -0.53125 Z "/>
</g>
</g>
</defs>
<g fill="rgb(100%, 100%, 100%)" fill-opacity="1">
<use xlink:href="#glyph-0-0" x="30" y="34.25293"/>
<use xlink:href="#glyph-0-1" x="38" y="34.25293"/>
<use xlink:href="#glyph-0-2" x="46" y="34.25293"/>
</g>
</svg>
