<?xml version="1.0" encoding="UTF-8"?>
<svg xmlns="http://www.w3.org/2000/svg" xmlns:xlink="http://www.w3.org/1999/xlink" width="1920" height="1080" viewBox="0 0 1920 1080">
<defs>
<g>
<g id="glyph-0-0">
<path d="M 1.59375 0 L 5 -7.40625 L 0.515625 -7.40625 L 0.515625 -8.328125 L 6.109375 -8.328125 L 6.109375 -7.546875 L 2.71875 0 Z "/>
</g>
<g id="glyph-0-1">
<path d="M 0.640625 -3.5625 C 0.640625 -4.15625 0.691406 -4.742188 0.796875 -5.328125 C 0.898438 -5.910156 1.085938 -6.4375 1.359375 -6.90625 C 1.640625 -7.375 2.03125 -7.75 2.53125 -8.03125 C 3.03125 -8.3125 3.671875 -8.453125 4.453125 -8.453125 C 4.617188 -8.453125 4.800781 -8.441406 5 -8.421875 C 5.195312 -8.410156 5.359375 -8.382812 5.484375 -8.34375 L 5.484375 -7.46875 C 5.347656 -7.519531 5.191406 -7.554688 5.015625 -7.578125 C 4.835938 -7.597656 4.660156 -7.609375 4.484375 -7.609375 C 3.941406 -7.609375 3.492188 -7.519531 3.140625 -7.34375 C 2.785156 -7.164062 2.503906 -6.921875 2.296875 -6.609375 C 2.085938 -6.296875 1.9375 -5.9375 1.84375 -5.53125 C 1.75 -5.125 1.691406 -4.691406 1.671875 -4.234375 L 1.734375 -4.234375 C 1.910156 -4.503906 2.160156 -4.734375 2.484375 -4.921875 C 2.804688 -5.117188 3.21875 -5.21875 3.71875 -5.21875 C 4.4375 -5.21875 5.015625 -4.992188 5.453125 -4.546875 C 5.898438 -4.109375 6.125 -3.488281 6.125 -2.6875 C 6.125 -1.8125 5.882812 -1.125 5.40625 -0.625 C 4.925781 -0.132812 4.285156 0.109375 3.484375 0.109375 C 2.953125 0.109375 2.472656 -0.0195312 2.046875 -0.28125 C 1.617188 -0.539062 1.273438 -0.941406 1.015625 -1.484375 C 0.765625 -2.035156 0.640625 -2.726562 0.640625 -3.5625 Z M 3.46875 -0.75 C 3.957031 -0.75 4.351562 -0.90625 4.65625 -1.21875 C 4.957031 -1.53125 5.109375 -2.019531 5.109375 -2.6875 C 5.109375 -3.21875 4.972656 -3.632812 4.703125 -3.9375 C 4.441406 -4.25 4.039062 -4.40625 3.5 -4.40625 C 3.132812 -4.40625 2.816406 -4.328125 2.546875 -4.171875 C 2.273438 -4.023438 2.0625 -3.832031 1.90625 -3.59375 C 1.757812 -3.363281 1.6875 -3.128906 1.6875 -2.890625 C 1.6875 -2.546875 1.75 -2.207031 1.875 -1.875 C 2.007812 -1.550781 2.207031 -1.28125 2.46875 -1.0625 C 2.738281 -0.851562 3.070312 -0.75 3.46875 -0.75 Z "/>
</g>
<g id="glyph-0-2">
<path d="M 2.28125 -8.453125 C 2.851562 -8.453125 3.285156 -8.222656 3.578125 -7.765625 C 3.878906 -7.304688 4.03125 -6.664062 4.03125 -5.84375 C 4.03125 -5.019531 3.882812 -4.375 3.59375 -3.90625 C 3.3125 -3.445312 2.875 -3.21875 2.28125 -3.21875 C 1.726562 -3.21875 1.304688 -3.445312 1.015625 -3.90625 C 0.722656 -4.375 0.578125 -5.019531 0.578125 -5.84375 C 0.578125 -6.664062 0.710938 -7.304688 0.984375 -7.765625 C 1.253906 -8.222656 1.6875 -8.453125 2.28125 -8.453125 Z M 7.609375 -8.328125 L 2.984375 0 L 2.09375 0 L 6.71875 -8.328125 Z M 2.28125 -7.734375 C 1.976562 -7.734375 1.757812 -7.570312 1.625 -7.25 C 1.488281 -6.9375 1.421875 -6.46875 1.421875 -5.84375 C 1.421875 -5.21875 1.488281 -4.742188 1.625 -4.421875 C 1.757812 -4.109375 1.976562 -3.953125 2.28125 -3.953125 C 2.875 -3.953125 3.171875 -4.582031 3.171875 -5.84375 C 3.171875 -7.101562 2.875 -7.734375 2.28125 -7.734375 Z M 7.375 -5.109375 C 7.945312 -5.109375 8.378906 -4.878906 8.671875 -4.421875 C 8.972656 -3.972656 9.125 -3.335938 9.125 -2.515625 C 9.125 -1.679688 8.984375 -1.035156 8.703125 -0.578125 C 8.421875 -0.117188 7.976562 0.109375 7.375 0.109375 C 6.820312 0.109375 6.398438 -0.117188 6.109375 -0.578125 C 5.816406 -1.035156 5.671875 -1.679688 5.671875 -2.515625 C 5.671875 -3.335938 5.804688 -3.972656 6.078125 -4.421875 C 6.347656 -4.878906 6.78125 -5.109375 7.375 -5.109375 Z M 7.375 -4.375 C 7.082031 -4.375 6.867188 -4.21875 6.734375 -3.90625 C 6.597656 -3.59375 6.53125 -3.128906 6.53125 -2.515625 C 6.53125 -1.878906 6.597656 -1.40625 6.734375 -1.09375 C 6.867188 -0.78125 7.082031 -0.625 7.375 -0.625 C 7.976562 -0.625 8.28125 -1.253906 8.28125 -2.515625 C 8.28125 -3.753906 7.976562 -4.375 7.375 -4.375 Z "/>
</g>
</g>
</defs>
<g fill="rgb(100%, 100%, 100%)" fill-opacity="1">
<use xlink:href="#glyph-0-0" x="30" y="32.47168"/>
<use xlink:href="#glyph-0-1" x="37" y="32.47168"/>
<use xlink:href="#glyph-0-2" x="44" y="32.47168"/>
</g>
</svg>
